<?xml version="1.0" encoding="utf-8"?>
<!-- Generator: Adobe Illustrator 16.0.0, SVG Export Plug-In . SVG Version: 6.00 Build 0)  -->
<!DOCTYPE svg PUBLIC "-//W3C//DTD SVG 1.1//EN" "http://www.w3.org/Graphics/SVG/1.1/DTD/svg11.dtd">
<svg version="1.1" id="Layer_1" xmlns="http://www.w3.org/2000/svg" xmlns:xlink="http://www.w3.org/1999/xlink" x="0px" y="0px"
	 width="103.494px" height="103.493px" viewBox="0 0 103.494 103.493" enable-background="new 0 0 103.494 103.493"
	 xml:space="preserve">
<symbol  id="logo" viewBox="-42.748 -42.748 85.496 85.495">
	<linearGradient id="SVGID_1_" gradientUnits="userSpaceOnUse" x1="-42.7476" y1="-4.882813e-004" x2="42.748" y2="-4.882813e-004">
		<stop  offset="0" style="stop-color:#307BBF"/>
		<stop  offset="1" style="stop-color:#307BBF"/>
	</linearGradient>
	<path fill="url(#SVGID_1_)" d="M42.748-28.919c0-7.637-6.191-13.829-13.828-13.829h-57.839c-7.637,0-13.828,6.192-13.828,13.829
		v57.838c0,7.637,6.191,13.828,13.828,13.828H28.92c7.637,0,13.828-6.191,13.828-13.828V-28.919z"/>
	<g>
		<path fill="#FED777" d="M-28.42-14.723c0-0.822-0.65-1.473-1.473-1.473s-1.472,0.65-1.472,1.473v26.545
			c0,0.823,0.649,1.473,1.472,1.473h8.618c4.807,0,8.271-3.638,8.271-8.271c0-4.46-3.074-8.055-7.751-8.271l7.925-10.566
			c0.217-0.26,0.303-0.606,0.303-0.909c0-0.822-0.649-1.473-1.472-1.473c-0.433,0-0.91,0.174-1.256,0.693l-8.791,12.255h-4.374
			V-14.723z M-28.42-0.563h7.232c3.031,0,5.196,2.469,5.196,5.586c0,3.205-2.208,5.586-5.327,5.586h-7.102V-0.563z"/>
		<path fill="#FED777" d="M8.522-5.975c0-7.103-3.464-10.438-9.094-10.438c-5.586,0-9.094,3.335-9.094,10.438
			c0,7.101,3.508,10.393,9.094,10.393C5.058,4.418,8.522,1.126,8.522-5.975z M5.708-5.975c0,5.455-2.295,7.881-6.279,7.881
			c-3.984,0-6.279-2.426-6.279-7.881c0-5.543,2.295-7.926,6.279-7.926C3.413-13.9,5.708-11.518,5.708-5.975z"/>
		<path fill="#FED777" d="M16.45-14.723c0-0.822-0.649-1.473-1.473-1.473c-0.822,0-1.472,0.65-1.472,1.473v26.545
			c0,0.823,0.649,1.473,1.472,1.473h8.618c4.807,0,8.271-3.638,8.271-8.271c0-4.46-3.074-8.055-7.751-8.271l7.925-10.566
			c0.216-0.26,0.303-0.606,0.303-0.909c0-0.822-0.649-1.473-1.473-1.473c-0.433,0-0.909,0.174-1.256,0.693l-8.79,12.255H16.45
			V-14.723z M16.45-0.563h7.231c3.031,0,5.197,2.469,5.197,5.586c0,3.205-2.209,5.586-5.327,5.586H16.45V-0.563z"/>
	</g>
</symbol>
<use xlink:href="#logo"  width="85.496" height="85.495" id="XMLID_3_" x="-42.748" y="-42.748" transform="matrix(1.2105 0 0 -1.2105 51.7466 51.7461)" overflow="visible"/>
</svg>
